<?xml version="1.0" encoding="UTF-8"?>
<svg id="Layer_1" xmlns="http://www.w3.org/2000/svg" viewBox="0 8.8 65.18 10.8"><defs><style>.cls-2{fill:#b19cff;}</style></defs><path class="cls-2" d="M5.16,19.5h3.56v-2.7h-3.56c-1.36,0-2.47-1.11-2.47-2.47s1.11-2.47,2.47-2.47h3.56v-2.7h-3.56c-2.85,0-5.16,2.32-5.16,5.16s2.32,5.16,5.16,5.16Z"/><polygon class="cls-2" points="17.19 19.5 19.89 19.5 19.89 9.17 17.19 9.17 17.19 12.98 12.87 12.98 12.87 9.17 10.17 9.17 10.17 19.5 12.87 19.5 12.87 15.68 17.19 15.68 17.19 19.5"/><path class="cls-2" d="M26.64,8.86c-3.02,0-5.47,2.45-5.47,5.47s2.45,5.47,5.47,5.47,5.47-2.45,5.47-5.47-2.45-5.47-5.47-5.47ZM26.64,16.98c-1.46,0-2.65-1.19-2.65-2.65s1.19-2.65,2.65-2.65,2.65,1.19,2.65,2.65-1.19,2.65-2.65,2.65Z"/><path class="cls-2" d="M40.14,15.68c1.8,0,3.26-1.46,3.26-3.26s-1.46-3.26-3.26-3.26h-6.75v10.33h2.7v-7.63h4.07c.29,0,.54.26.54.56s-.25.56-.54.56c-1.8,0-3.26,1.46-3.26,3.26s1.46,3.26,3.26,3.26h3.01v-2.7h-3.03c-.29,0-.54-.26-.54-.56s.25-.56.54-.56Z"/><path class="cls-2" d="M47.27,14.87v-5.7h-2.7v5.7c0,2.72,2.21,4.94,4.94,4.94s4.94-2.21,4.94-4.94v-5.7h-2.7v5.7c0,1.23-1,2.24-2.24,2.24s-2.24-1-2.24-2.24Z"/><path class="cls-2" d="M61.93,12.98h-3.07c-.29,0-.54-.26-.54-.56s.25-.56.54-.56h6.1v-2.7h-6.08c-1.8,0-3.26,1.46-3.26,3.26s1.46,3.26,3.26,3.26h3.07c.29,0,.54.26.54.56s-.25.56-.54.56h-6.1v2.7h6.08c1.8,0,3.26-1.46,3.26-3.26s-1.46-3.26-3.26-3.26Z"/></svg>
